<svg xmlns="http://www.w3.org/2000/svg" viewBox="0 0 512 512" width="512" height="512">
  <!-- Clipboard background -->
  <rect x="106" y="30" width="300" height="450" rx="20" ry="20" fill="#f8f9fa" stroke="#343a40" stroke-width="12"/>
  
  <!-- Clipboard top -->
  <rect x="186" y="30" width="140" height="40" rx="10" ry="10" fill="#dee2e6" stroke="#343a40" stroke-width="12"/>
  
  <!-- History list items -->
  <rect x="136" y="100" width="240" height="50" rx="5" ry="5" fill="#e9ecef" stroke="#6c757d" stroke-width="4"/>
  <rect x="136" y="170" width="240" height="50" rx="5" ry="5" fill="#e9ecef" stroke="#6c757d" stroke-width="4"/>
  <rect x="136" y="240" width="240" height="50" rx="5" ry="5" fill="#e9ecef" stroke="#6c757d" stroke-width="4"/>
  <rect x="136" y="310" width="240" height="50" rx="5" ry="5" fill="#e9ecef" stroke="#6c757d" stroke-width="4"/>
  
  <!-- Arrow symbol for copy history -->
  <g transform="translate(256, 410) scale(2.5)">
    <path d="M 0 -20 L 15 0 L 0 20 L -15 0 Z" fill="#007bff" stroke="#0056b3" stroke-width="2"/>
    <circle cx="0" cy="0" r="8" fill="#ffffff"/>
  </g>
  
  <!-- Window source indicators -->
  <rect x="150" y="110" width="60" height="10" fill="#6c757d"/>
  <rect x="150" y="125" width="200" height="15" fill="#adb5bd"/>
  
  <rect x="150" y="180" width="60" height="10" fill="#6c757d"/>
  <rect x="150" y="195" width="200" height="15" fill="#adb5bd"/>
  
  <rect x="150" y="250" width="60" height="10" fill="#6c757d"/>
  <rect x="150" y="265" width="200" height="15" fill="#adb5bd"/>
  
  <rect x="150" y="320" width="60" height="10" fill="#6c757d"/>
  <rect x="150" y="335" width="200" height="15" fill="#adb5bd"/>
</svg>
